<svg width="64" height="64" viewBox="-20 -20 40 40" xmlns="http://www.w3.org/2000/svg">
  <!-- Glow -->
  <circle cx="0" cy="0" r="16.6232" fill="#ff3b30" opacity="0.4" filter="blur(4px)" />

  <!-- Base -->
  <g transform="scale(1.03895) rotate(0)">
    <path d="M 10 0 L 4.504844339512096 2.1694186955877908 L 6.2348980185873355 7.818314824680298 L 1.1126046697815721 4.874639560909118 L -2.2252093395631434 9.749279121818237 L -3.1174490092936673 3.9091574123401496 L -9.00968867902419 4.338837391175582 L -5 6.123233995736766e-16 L -9.009688679024192 -4.33883739117558 L -3.1174490092936686 -3.9091574123401482 L -2.225209339563146 -9.749279121818237 L 1.1126046697815712 -4.874639560909118 L 6.234898018587334 -7.818314824680299 L 4.504844339512095 -2.1694186955877917 Z" fill="#111" stroke="#ff3b30" stroke-width="4.16" stroke-linejoin="miter" stroke-linecap="butt" />
    <path d="M 10 0 L 4.504844339512096 2.1694186955877908 L 6.2348980185873355 7.818314824680298 L 1.1126046697815721 4.874639560909118 L -2.2252093395631434 9.749279121818237 L -3.1174490092936673 3.9091574123401496 L -9.00968867902419 4.338837391175582 L -5 6.123233995736766e-16 L -9.009688679024192 -4.33883739117558 L -3.1174490092936686 -3.9091574123401482 L -2.225209339563146 -9.749279121818237 L 1.1126046697815712 -4.874639560909118 L 6.234898018587334 -7.818314824680299 L 4.504844339512095 -2.1694186955877917 Z" fill="none" stroke="#ffffff" stroke-width="1" transform="scale(0.6)" opacity="0.7" />
  </g>

  <!-- Barrels (Point Up) -->
  <g transform="rotate(0)"> 
     <path d="M -2 0 L -2 -19.7 L 2 -19.7 L 2 0 Z" fill="#ff3b30" transform="translate(-3, 0)" />
     <path d="M -2 0 L -2 -19.7 L 2 -19.7 L 2 0 Z" fill="#ff3b30" transform="translate(3, 0)" />
  </g>
</svg>