<svg width="64" height="64" viewBox="-20 -20 40 40" xmlns="http://www.w3.org/2000/svg">
  <!-- Glow -->
  <circle cx="0" cy="0" r="16.008" fill="#ff3b30" opacity="0.4" filter="blur(4px)" />

  <!-- Base -->
  <g transform="scale(1.0005) rotate(90)">
    <path d="M 10 0 L 10 0 L 7.207750943219353 3.471069912940465 L 6.2348980185873355 7.818314824680298 L 1.7801674716505156 7.799423297454589 L -2.2252093395631434 9.749279121818237 L -4.987918414869868 6.254651859744239 L -9.00968867902419 4.338837391175582 L -8 9.797174393178826e-16 L -9.009688679024192 -4.33883739117558 L -4.98791841486987 -6.2546518597442375 L -2.225209339563146 -9.749279121818237 L 1.7801674716505138 -7.799423297454589 L 6.234898018587334 -7.818314824680299 L 7.207750943219352 -3.4710699129404667 Z" fill="#111" stroke="#1a1a1a" stroke-width="4.640000000000001" stroke-linejoin="round" stroke-linecap="round" />
    <path d="M 10 0 L 10 0 L 7.207750943219353 3.471069912940465 L 6.2348980185873355 7.818314824680298 L 1.7801674716505156 7.799423297454589 L -2.2252093395631434 9.749279121818237 L -4.987918414869868 6.254651859744239 L -9.00968867902419 4.338837391175582 L -8 9.797174393178826e-16 L -9.009688679024192 -4.33883739117558 L -4.98791841486987 -6.2546518597442375 L -2.225209339563146 -9.749279121818237 L 1.7801674716505138 -7.799423297454589 L 6.234898018587334 -7.818314824680299 L 7.207750943219352 -3.4710699129404667 Z" fill="none" stroke="#ff3b30" stroke-width="1" transform="scale(0.6)" opacity="0.7" />
  </g>

  <!-- Barrels (Point Up) -->
  <g transform="rotate(0)"> 
     <path d="M -3 0 L -1 -11.3 L 1 -11.3 L 3 0 Z" fill="#1a1a1a" transform="translate(-3, 0)" />
     <path d="M -3 0 L -1 -11.3 L 1 -11.3 L 3 0 Z" fill="#1a1a1a" transform="translate(3, 0)" />
  </g>
</svg>