<svg width="64" height="64" viewBox="-20 -20 40 40" xmlns="http://www.w3.org/2000/svg">
  <!-- Glow -->
  <circle cx="0" cy="0" r="18.39000967757751" fill="#00ffff" opacity="0.4" filter="blur(4px)" />

  <!-- Base -->
  <g transform="scale(1.1493756048485944) rotate(205)">
    <path d="M 10 0 L 2.4270509831248424 1.7633557568774194 L 3.0901699437494745 9.510565162951535 L -0.927050983124842 2.853169548885461 L -8.090169943749473 5.877852522924733 L -3 3.6739403974420594e-16 L -8.090169943749475 -5.87785252292473 L -0.9270509831248427 -2.8531695488854605 L 3.0901699437494723 -9.510565162951536 L 2.427050983124842 -1.76335575687742 Z" fill="#111" stroke="#00ffff" stroke-width="1.8321967488406754" stroke-linejoin="miter" stroke-linecap="butt" />
    <path d="M 10 0 L 2.4270509831248424 1.7633557568774194 L 3.0901699437494745 9.510565162951535 L -0.927050983124842 2.853169548885461 L -8.090169943749473 5.877852522924733 L -3 3.6739403974420594e-16 L -8.090169943749475 -5.87785252292473 L -0.9270509831248427 -2.8531695488854605 L 3.0901699437494723 -9.510565162951536 L 2.427050983124842 -1.76335575687742 Z" fill="none" stroke="#ff00ff" stroke-width="1" transform="scale(0.6)" opacity="0.7" />
  </g>

  <!-- Barrels (Point Up) -->
  <g transform="rotate(0)"> 
     <path d="M -2 0 L -2 -10 L 2 -10 L 2 0 Z" fill="#00ffff" transform="translate(-3, 0)" />
     <path d="M -2 0 L -2 -10 L 2 -10 L 2 0 Z" fill="#00ffff" transform="translate(3, 0)" />
  </g>
</svg>