<svg width="64" height="64" viewBox="-20 -20 40 40" xmlns="http://www.w3.org/2000/svg">
  <!-- Glow -->
  <circle cx="0" cy="0" r="16.869600000000002" fill="#ff3b30" opacity="0.4" filter="blur(4px)" />

  <!-- Base -->
  <g transform="scale(1.0543500000000001) rotate(0)">
    <path d="M 10 0 L 4.619397662556434 1.913417161825449 L 7.0710678118654755 7.071067811865475 L 1.9134171618254492 4.619397662556434 L 6.123233995736766e-16 10 L -1.9134171618254485 4.619397662556434 L -7.071067811865475 7.0710678118654755 L -4.619397662556434 1.9134171618254494 L -10 1.2246467991473533e-15 L -4.619397662556434 -1.9134171618254483 L -7.071067811865477 -7.071067811865475 L -1.9134171618254516 -4.619397662556432 L -1.8369701987210296e-15 -10 L 1.91341716182545 -4.619397662556433 L 7.071067811865474 -7.071067811865477 L 4.619397662556432 -1.913417161825452 Z" fill="#111" stroke="#ff3b30" stroke-width="4.28" stroke-linejoin="miter" stroke-linecap="butt" />
    <path d="M 10 0 L 4.619397662556434 1.913417161825449 L 7.0710678118654755 7.071067811865475 L 1.9134171618254492 4.619397662556434 L 6.123233995736766e-16 10 L -1.9134171618254485 4.619397662556434 L -7.071067811865475 7.0710678118654755 L -4.619397662556434 1.9134171618254494 L -10 1.2246467991473533e-15 L -4.619397662556434 -1.9134171618254483 L -7.071067811865477 -7.071067811865475 L -1.9134171618254516 -4.619397662556432 L -1.8369701987210296e-15 -10 L 1.91341716182545 -4.619397662556433 L 7.071067811865474 -7.071067811865477 L 4.619397662556432 -1.913417161825452 Z" fill="none" stroke="#ffffff" stroke-width="1" transform="scale(0.6)" opacity="0.7" />
  </g>

  <!-- Barrels (Point Up) -->
  <g transform="rotate(0)"> 
     <path d="M -2 0 L -2 -10.1 L 2 -10.1 L 2 0 Z" fill="#ff3b30" transform="translate(-3, 0)" />
     <path d="M -2 0 L -2 -10.1 L 2 -10.1 L 2 0 Z" fill="#ff3b30" transform="translate(3, 0)" />
  </g>
</svg>